HIERARCHY
ROOT joint_Root
{
	OFFSET 0.0 0.0 0.0
	CHANNELS 6 Xposition Yposition Zposition Zrotation Xrotation Yrotation 
	JOINT Hips
	{
		OFFSET -0.726466 93.3139 -2.00062
		CHANNELS 6 Xposition Yposition Zposition Zrotation Xrotation Yrotation 
		JOINT Spine
		{
			OFFSET 15.7357 0.0 0.0
			CHANNELS 6 Xposition Yposition Zposition Zrotation Xrotation Yrotation 
			JOINT Chest
			{
				OFFSET 8.98455 -0.406207 0.0
				CHANNELS 6 Xposition Yposition Zposition Zrotation Xrotation Yrotation 
				JOINT Neck
				{
					OFFSET 16.3773 0.0 0.0
					CHANNELS 6 Xposition Yposition Zposition Zrotation Xrotation Yrotation 
					JOINT Head
					{
						OFFSET 6.45672 0.0 0.0
						CHANNELS 6 Xposition Yposition Zposition Zrotation Xrotation Yrotation 
						End Site
						{
							OFFSET 0.0 0.0 0.0
						}
					}
				}
				JOINT Shoulder_L
				{
					OFFSET 12.9942 -0.242716 4.98039
					CHANNELS 6 Xposition Yposition Zposition Zrotation Xrotation Yrotation 
					JOINT UpperArm_L
					{
						OFFSET 5.34809 0.0 0.0
						CHANNELS 6 Xposition Yposition Zposition Zrotation Xrotation Yrotation 
						JOINT LowerArm_L
						{
							OFFSET 24.3286 1.87007e-05 0.0
							CHANNELS 6 Xposition Yposition Zposition Zrotation Xrotation Yrotation 
							JOINT Hand_L
							{
								OFFSET 22.2916 0.0 0.0
								CHANNELS 6 Xposition Yposition Zposition Zrotation Xrotation Yrotation 
								End Site
								{
									OFFSET 0.0 0.0 0.0
								}
							}
						}
					}
				}
				JOINT Shoulder_R
				{
					OFFSET 12.9945 -0.242716 -4.98039
					CHANNELS 6 Xposition Yposition Zposition Zrotation Xrotation Yrotation 
					JOINT UpperArm_R
					{
						OFFSET -5.34813 0.0 0.0
						CHANNELS 6 Xposition Yposition Zposition Zrotation Xrotation Yrotation 
						JOINT LowerArm_R
						{
							OFFSET -24.3289 0.000322201 0.0
							CHANNELS 6 Xposition Yposition Zposition Zrotation Xrotation Yrotation 
							JOINT Hand_R
							{
								OFFSET -22.2915 -0.000108084 0.0
								CHANNELS 6 Xposition Yposition Zposition Zrotation Xrotation Yrotation 
								End Site
								{
									OFFSET 0.0 0.0 0.0
								}
							}
						}
					}
				}
			}
		}
		JOINT UpperLeg_L
		{
			OFFSET -2.19248 -6.46944 0.0
			CHANNELS 6 Xposition Yposition Zposition Zrotation Xrotation Yrotation 
			JOINT LowerLeg_L
			{
				OFFSET 39.0811 0.0 -1.23785e-05
				CHANNELS 6 Xposition Yposition Zposition Zrotation Xrotation Yrotation 
				JOINT Foot_L
				{
					OFFSET 40.9854 0.0 -1.26872e-05
					CHANNELS 6 Xposition Yposition Zposition Zrotation Xrotation Yrotation 
					JOINT Toes_L
					{
						OFFSET 11.7543 0.0 0.0
						CHANNELS 6 Xposition Yposition Zposition Zrotation Xrotation Yrotation 
						End Site
						{
							OFFSET 0.0 0.0 0.0
						}
					}
				}
			}
		}
		JOINT UpperLeg_R
		{
			OFFSET -2.19251 6.46944 0.0
			CHANNELS 6 Xposition Yposition Zposition Zrotation Xrotation Yrotation 
			JOINT LowerLeg_R
			{
				OFFSET -39.0811 -0.00228153 -0.0401928
				CHANNELS 6 Xposition Yposition Zposition Zrotation Xrotation Yrotation 
				JOINT Foot_R
				{
					OFFSET -40.9854 0.0 0.0
					CHANNELS 6 Xposition Yposition Zposition Zrotation Xrotation Yrotation 
					JOINT Toes_R
					{
						OFFSET -11.7543 0.0 0.0
						CHANNELS 6 Xposition Yposition Zposition Zrotation Xrotation Yrotation 
						End Site
						{
							OFFSET 0.0 0.0 0.0
						}
					}
				}
			}
		}
	}
}
MOTION
Frames:	9
Frame Time:	0.0333333
0.000000 0.000000 0.000000 0.000000 0.000000 -0.000000 -2.686060 92.186100 -1.778110 87.768400 0.204588 2.466060 15.735700 0.000005 -0.000001 71.530400 86.083800 -68.600000 8.984550 -0.406207 -0.000000 -0.261175 -2.685840 5.852310 16.377300 -0.000001 -0.000001 0.610802 -2.585080 -1.090540 6.456720 -0.000001 -0.000000 2.184670 -2.924570 6.999470 12.994200 -0.242716 4.980390 -84.713000 -10.384000 -62.823800 5.348090 -0.000007 -0.000001 -72.847600 -57.927000 -112.757000 24.328600 0.000019 0.000005 0.449333 0.377121 -49.991900 22.291600 -0.000001 0.000005 16.605500 5.587920 -10.645300 12.994500 -0.242716 -4.980390 90.362500 -0.992015 -69.924900 -5.348130 -0.000001 -0.000004 -35.265300 77.387400 -15.105800 -24.328900 0.000322 -0.000009 22.287900 3.149810 -82.365700 -22.291500 -0.000108 -0.000004 38.110900 5.674380 -24.101800 -2.192480 -6.469440 -0.000000 -168.410000 -13.763100 -2.539190 39.081100 -0.000007 -0.000012 -0.148811 0.428476 19.152400 40.985400 -0.000006 -0.000013 -6.921900 3.792190 -62.382400 11.754300 -0.000000 0.000003 -0.000026 -0.000315 -16.589900 -2.192510 6.469440 -0.000001 176.201000 20.488100 178.525000 -39.081100 -0.002282 -0.040193 -0.042669 0.130822 19.369600 -40.985400 0.000008 0.000006 -1.945350 1.656870 -63.961700 -11.754300 -0.000006 -0.000006 -0.006150 -0.072189 -19.511200
0.000000 0.000000 0.000000 0.000000 0.000000 -0.000000 -2.671440 92.193600 -1.834960 87.773300 -0.078859 2.410960 15.735700 0.000005 -0.000001 72.402300 86.096200 -69.478400 8.984550 -0.406207 -0.000000 -0.251244 -2.564320 5.839680 16.377300 -0.000001 -0.000001 0.470468 -2.545990 -1.019100 6.456720 -0.000001 -0.000000 1.866780 -2.934240 6.903290 12.994200 -0.242716 4.980390 -84.707500 -10.384600 -62.800800 5.348090 -0.000007 -0.000001 -72.749600 -58.155100 -112.590000 24.328600 0.000019 0.000005 0.434485 0.365341 -49.939100 22.291600 -0.000001 0.000005 16.549500 5.587840 -10.640600 12.994500 -0.242716 -4.980390 90.375200 -1.026490 -69.920600 -5.348130 -0.000001 -0.000004 -35.887800 77.343600 -14.493800 -24.328900 0.000322 -0.000009 22.254500 3.149350 -82.354300 -22.291500 -0.000108 -0.000004 38.084100 5.674370 -24.103100 -2.192480 -6.469440 -0.000000 -168.429000 -13.881600 -2.527900 39.081100 -0.000007 -0.000012 -0.148807 0.429774 19.098300 40.985400 -0.000006 -0.000013 -6.946350 3.620850 -62.364200 11.754300 -0.000000 0.000003 -0.000029 -0.000352 -16.591300 -2.192510 6.469440 -0.000001 176.243000 20.300900 178.365000 -39.081100 -0.002282 -0.040193 -0.041838 0.128312 19.389800 -40.985400 0.000008 0.000006 -1.902600 1.734480 -63.900400 -11.754300 -0.000006 -0.000006 -0.006169 -0.072359 -19.518100
0.000000 0.000000 0.000000 0.000000 0.000000 -0.000000 -2.666630 92.205700 -1.866210 87.734500 -0.233557 2.366260 15.735700 0.000005 -0.000001 72.817800 86.101700 -69.889800 8.984550 -0.406207 -0.000000 -0.246100 -2.507240 5.847990 16.377300 -0.000001 -0.000001 0.338473 -2.508480 -0.929459 6.456720 -0.000001 -0.000000 1.458470 -2.963200 6.876030 12.994200 -0.242716 4.980390 -84.711600 -10.350400 -62.742900 5.348090 -0.000007 -0.000001 -72.917700 -58.168000 -112.715000 24.328600 0.000019 0.000005 0.486589 0.409844 -49.891800 22.291600 -0.000001 0.000005 16.540100 5.585370 -10.503700 12.994500 -0.242716 -4.980390 90.371600 -1.017180 -69.929500 -5.348130 -0.000001 -0.000004 -36.351500 77.346500 -13.956200 -24.328900 0.000322 -0.000009 22.204700 3.121250 -82.403000 -22.291500 -0.000108 -0.000004 38.045000 5.674560 -24.067200 -2.192480 -6.469440 -0.000000 -168.422000 -13.910100 -2.549180 39.081100 -0.000007 -0.000012 -0.146180 0.422903 19.068300 40.985400 -0.000006 -0.000013 -6.954810 3.478710 -62.350000 11.754300 -0.000000 0.000003 -0.000028 -0.000335 -16.590700 -2.192510 6.469440 -0.000001 176.314000 20.287100 178.293000 -39.081100 -0.002282 -0.040193 -0.038185 0.118238 19.343900 -40.985400 0.000008 0.000006 -1.691280 1.872280 -63.847800 -11.754300 -0.000006 -0.000006 -0.005905 -0.069973 -19.420800
0.000000 0.000000 0.000000 0.000000 0.000000 -0.000000 -2.670320 92.205000 -1.908170 87.700600 -0.417790 2.310340 15.735700 0.000005 -0.000001 73.002400 86.120300 -70.077000 8.984550 -0.406207 -0.000000 -0.275301 -2.472930 5.842280 16.377300 -0.000001 -0.000001 0.230122 -2.463690 -0.929127 6.456720 -0.000001 -0.000000 1.236730 -3.000900 7.028570 12.994200 -0.242716 4.980390 -84.715400 -10.333400 -62.721900 5.348090 -0.000007 -0.000001 -72.950600 -58.233500 -112.733000 24.328600 0.000019 0.000005 0.278429 0.235123 -49.816700 22.291600 -0.000001 0.000005 16.615300 5.588710 -10.689000 12.994500 -0.242716 -4.980390 90.382700 -1.053510 -70.036000 -5.348130 -0.000001 -0.000004 -36.633000 77.369800 -13.655300 -24.328900 0.000322 -0.000009 22.111100 3.104580 -82.408100 -22.291500 -0.000108 -0.000004 38.062600 5.674350 -24.107800 -2.192480 -6.469440 -0.000000 -168.397000 -13.990600 -2.608460 39.081100 -0.000007 -0.000012 -0.146777 0.423561 19.113000 40.985400 -0.000006 -0.000013 -6.973740 3.369970 -62.370100 11.754300 -0.000000 0.000003 -0.000022 -0.000276 -16.588400 -2.192510 6.469440 -0.000001 176.376000 20.216500 178.194000 -39.081100 -0.002282 -0.040193 -0.039046 0.120802 19.327200 -40.985400 0.000008 0.000006 -1.785330 1.971740 -63.791900 -11.754300 -0.000006 -0.000006 -0.006073 -0.071495 -19.482900
0.000000 0.000000 0.000000 0.000000 0.000000 -0.000000 -2.670930 92.209200 -1.927440 87.682500 -0.529138 2.323260 15.735700 0.000005 -0.000001 73.033400 86.120200 -70.133200 8.984550 -0.406207 -0.000000 -0.274741 -2.467170 5.791860 16.377300 -0.000001 -0.000001 0.112776 -2.461470 -0.896664 6.456720 -0.000001 -0.000000 1.242080 -2.985070 7.225390 12.994200 -0.242716 4.980390 -84.699900 -10.362800 -62.718800 5.348090 -0.000007 -0.000001 -72.943000 -58.282000 -112.715000 24.328600 0.000019 0.000005 0.383949 0.323717 -49.862700 22.291600 -0.000001 0.000005 16.671100 5.588070 -10.653600 12.994500 -0.242716 -4.980390 90.355300 -0.976281 -70.001800 -5.348130 -0.000001 -0.000004 -35.936200 77.427300 -14.293100 -24.328900 0.000322 -0.000009 22.037100 3.099110 -82.393400 -22.291500 -0.000108 -0.000004 38.058600 5.674170 -24.141000 -2.192480 -6.469440 -0.000000 -168.378000 -14.025900 -2.578020 39.081100 -0.000007 -0.000012 -0.148012 0.427355 19.103400 40.985400 -0.000006 -0.000013 -6.983940 3.286720 -62.366900 11.754300 -0.000000 0.000003 -0.000025 -0.000309 -16.589700 -2.192510 6.469440 -0.000001 176.400000 20.125000 178.193000 -39.081100 -0.002282 -0.040193 -0.037534 0.116682 19.297900 -40.985400 0.000008 0.000006 -1.764130 2.016660 -63.757300 -11.754300 -0.000006 -0.000006 -0.006256 -0.073140 -19.550000
0.000000 0.000000 0.000000 0.000000 0.000000 -0.000000 -2.670390 92.205000 -1.948560 87.652700 -0.573563 2.347330 15.735700 0.000005 -0.000001 72.783400 86.112900 -69.887600 8.984550 -0.406207 -0.000000 -0.269925 -2.503420 5.783030 16.377300 -0.000001 -0.000001 0.051604 -2.429620 -0.878711 6.456720 -0.000001 -0.000000 1.253540 -2.940320 7.270850 12.994200 -0.242716 4.980390 -84.708000 -10.355300 -62.737600 5.348090 -0.000007 -0.000001 -72.899400 -58.307200 -112.622000 24.328600 0.000019 0.000005 0.427102 0.358919 -49.955900 22.291600 -0.000001 0.000005 16.647400 5.587310 -10.611400 12.994500 -0.242716 -4.980390 90.346000 -0.950532 -69.995500 -5.348130 -0.000001 -0.000004 -35.619400 77.433800 -14.607500 -24.328900 0.000322 -0.000009 22.066100 3.121000 -82.351400 -22.291500 -0.000108 -0.000004 38.086700 5.673790 -24.213300 -2.192480 -6.469440 -0.000000 -168.348000 -14.063600 -2.606060 39.081100 -0.000007 -0.000012 -0.147587 0.424007 19.192000 40.985400 -0.000006 -0.000013 -6.984720 3.236900 -62.394300 11.754300 -0.000000 0.000003 -0.000019 -0.000245 -16.587100 -2.192510 6.469440 -0.000001 176.436000 20.103300 178.178000 -39.081100 -0.002282 -0.040193 -0.037408 0.116072 19.336200 -40.985400 0.000008 0.000006 -1.716910 2.036180 -63.763400 -11.754300 -0.000006 -0.000006 -0.006358 -0.074050 -19.587100
0.000000 0.000000 0.000000 0.000000 0.000000 -0.000000 -2.667600 92.202000 -1.974750 87.629900 -0.615297 2.369400 15.735700 0.000005 -0.000001 72.476600 86.092700 -69.592400 8.984550 -0.406207 -0.000000 -0.242761 -2.553830 5.760470 16.377300 -0.000001 -0.000001 0.038977 -2.390500 -0.913962 6.456720 -0.000001 -0.000000 1.157000 -2.848430 7.401410 12.994200 -0.242716 4.980390 -84.677500 -10.386900 -62.673200 5.348090 -0.000007 -0.000001 -73.003100 -58.263700 -112.634000 24.328600 0.000019 0.000005 0.388965 0.326406 -49.995500 22.291600 -0.000001 0.000005 16.629100 5.587530 -10.623200 12.994500 -0.242716 -4.980390 90.334200 -0.918989 -70.015700 -5.348130 -0.000001 -0.000004 -35.536600 77.397200 -14.674900 -24.328900 0.000322 -0.000009 22.078600 3.127030 -82.341600 -22.291500 -0.000108 -0.000004 38.067000 5.673750 -24.221600 -2.192480 -6.469440 -0.000000 -168.312000 -13.986900 -2.590570 39.081100 -0.000007 -0.000012 -0.149869 0.430079 19.212000 40.985400 -0.000006 -0.000013 -7.000690 3.211660 -62.414400 11.754300 -0.000000 0.000003 -0.000020 -0.000248 -16.587300 -2.192510 6.469440 -0.000001 176.452000 20.155200 178.147000 -39.081100 -0.002282 -0.040193 -0.036800 0.114029 19.384900 -40.985400 0.000008 0.000006 -1.650920 2.089380 -63.757500 -11.754300 -0.000006 -0.000006 -0.006156 -0.072249 -19.513600
0.000000 0.000000 0.000000 0.000000 0.000000 -0.000000 -2.674200 92.195200 -2.006050 87.657000 -0.657732 2.413530 15.735700 0.000005 -0.000001 72.681500 86.081200 -69.821300 8.984550 -0.406207 -0.000000 -0.213670 -2.531590 5.713060 16.377300 -0.000001 -0.000001 0.073453 -2.356050 -0.927630 6.456720 -0.000001 -0.000000 1.024220 -2.820150 7.411880 12.994200 -0.242716 4.980390 -84.693000 -10.366000 -62.694900 5.348090 -0.000007 -0.000001 -73.062000 -58.163700 -112.679000 24.328600 0.000019 0.000005 0.333638 0.280113 -49.981100 22.291600 -0.000001 0.000005 16.686800 5.588500 -10.677400 12.994500 -0.242716 -4.980390 90.317000 -0.867741 -69.931600 -5.348130 -0.000001 -0.000004 -35.716500 77.343600 -14.449900 -24.328900 0.000322 -0.000009 22.127600 3.120640 -82.375500 -22.291500 -0.000108 -0.000004 38.076400 5.673820 -24.207700 -2.192480 -6.469440 -0.000000 -168.325000 -14.120000 -2.596530 39.081100 -0.000007 -0.000012 -0.148780 0.425327 19.280000 40.985400 -0.000006 -0.000013 -6.978890 3.280590 -62.409800 11.754300 -0.000000 0.000003 -0.000022 -0.000272 -16.588200 -2.192510 6.469440 -0.000001 176.420000 20.060900 178.124000 -39.081100 -0.002282 -0.040193 -0.038917 0.119454 19.473800 -40.985400 0.000008 0.000006 -1.684590 2.076820 -63.784400 -11.754300 -0.000006 -0.000006 -0.006088 -0.071633 -19.488500
0.000000 0.000000 0.000000 0.000000 0.000000 -0.000000 -2.670720 92.201900 -2.031320 87.663700 -0.678934 2.435670 15.735700 0.000005 -0.000001 72.428000 86.065100 -69.588400 8.984550 -0.406207 -0.000000 -0.192969 -2.572410 5.672260 16.377300 -0.000001 -0.000001 0.078921 -2.319620 -0.947109 6.456720 -0.000001 -0.000000 0.975657 -2.786040 7.482680 12.994200 -0.242716 4.980390 -84.684400 -10.366300 -62.657700 5.348090 -0.000007 -0.000001 -73.143400 -58.125300 -112.777000 24.328600 0.000019 0.000005 0.408452 0.343793 -49.910800 22.291600 -0.000001 0.000005 16.612300 5.589250 -10.719900 12.994500 -0.242716 -4.980390 90.311000 -0.853178 -69.969200 -5.348130 -0.000001 -0.000004 -36.101000 77.283300 -14.072000 -24.328900 0.000322 -0.000009 22.172800 3.131070 -82.367400 -22.291500 -0.000108 -0.000004 38.058800 5.673910 -24.190300 -2.192480 -6.469440 -0.000000 -168.340000 -14.025700 -2.561020 39.081100 -0.000007 -0.000012 -0.149404 0.428441 19.224700 40.985400 -0.000006 -0.000013 -6.991510 3.194500 -62.382000 11.754300 -0.000000 0.000003 -0.000023 -0.000282 -16.588600 -2.192510 6.469440 -0.000001 176.422000 20.059100 178.124000 -39.081100 -0.002282 -0.040193 -0.035513 0.109804 19.477500 -40.985400 0.000008 0.000006 -1.567320 2.075130 -63.775500 -11.754300 -0.000006 -0.000006 -0.006282 -0.073375 -19.559600
